# xmcd
#
# Track frame offsets: 
#        150
#        18519
#        32494
#        49726
#        63840
#        81953
#        97490
#        115692
#        133641
#        148846
#        167545
#        188157
#        207768
#
# Disc length: 2922 seconds
#
# Revision: 0
# Processed by: cddbd v1.5.2PL0 Copyright (c) Steve Scherf et al.
# Submitted via: ExactAudioCopy v1.3
#
DISCID=b20b680d
DTITLE=Вадим Захаров - Не кузнечик
DYEAR=1900
DGENRE=
TTITLE0=Про самолеты
TTITLE1=Поэзия полета
TTITLE2=Белокуриха
TTITLE3=Не кузнечик
TTITLE4=Самас красивая работа
TTITLE5=Летчик должен летать
TTITLE6=Паруса
TTITLE7=Журавлиный клин
TTITLE8=По облакам
TTITLE9=Осень золотая
TTITLE10=Я лечу к тебе
TTITLE11=Давайте будем счастливы...
TTITLE12=У нас все получится
EXTD=
EXTT0=
EXTT1=
EXTT2=
EXTT3=
EXTT4=
EXTT5=
EXTT6=
EXTT7=
EXTT8=
EXTT9=
EXTT10=
EXTT11=
EXTT12=
PLAYORDER=
